<?xml version="1.0" encoding="UTF-8" standalone="no"?>
<!DOCTYPE svg PUBLIC "-//W3C//DTD SVG 1.1//EN" "http://www.w3.org/Graphics/SVG/1.1/DTD/svg11.dtd">
<svg xmlns="http://www.w3.org/2000/svg" version="1.1" viewBox="0.00 0.00 500.00 500.00">
<path fill="rgba(103, 87, 214, 1)" d="
  M 250.05 289.97
  Q 249.78 289.90 249.56 290.03
  Q 249.38 290.15 249.28 290.33
  Q 231.59 320.94 213.75 351.97
  A 1.39 1.38 -75.0 0 1 212.55 352.67
  L 132.39 352.64
  A 0.39 0.39 0.0 0 1 132.05 352.05
  L 249.31 148.59
  A 0.61 0.60 44.8 0 1 250.36 148.59
  L 367.40 351.62
  Q 368.03 352.71 366.77 352.71
  L 344.96 352.66
  A 1.91 1.90 -15.0 0 1 343.31 351.71
  L 308.24 290.81
  A 0.78 0.78 0.0 0 0 306.89 290.81
  L 279.26 338.73
  A 0.55 0.55 0.0 0 1 278.30 338.73
  L 250.34 290.19
  A 0.48 0.48 0.0 0 0 250.05 289.97
  Z
  M 249.78 248.04
  Q 250.21 248.14 250.43 248.52
  Q 263.69 271.54 278.15 296.60
  A 0.73 0.73 0.0 0 0 279.41 296.60
  L 295.08 269.51
  A 1.52 1.52 0.0 0 0 295.08 267.99
  L 250.25 190.25
  A 0.38 0.36 74.2 0 0 249.93 190.06
  Q 249.57 190.05 249.39 190.36
  Q 209.33 259.69 168.54 330.59
  A 0.74 0.73 -75.0 0 0 169.17 331.69
  L 200.29 331.68
  A 1.79 1.76 14.8 0 0 201.83 330.80
  L 249.43 248.19
  A 0.32 0.31 -67.7 0 1 249.78 248.04
  Z"
/>
</svg>
