<?xml version="1.0" standalone="no"?>
<!DOCTYPE svg PUBLIC "-//W3C//DTD SVG 20010904//EN"
 "http://www.w3.org/TR/2001/REC-SVG-20010904/DTD/svg10.dtd">
<svg version="1.0" xmlns="http://www.w3.org/2000/svg"
 width="50.000000pt" height="50.000000pt" viewBox="0 0 348.000000 348.000000"
 preserveAspectRatio="xMidYMid meet">

<g transform="translate(0.000000,348.000000) scale(0.100000,-0.100000)"
fill="rgba(103, 87, 214, 1)" stroke="none">
<path d="M1560 3361 c-130 -24 -318 -110 -428 -195 -349 -268 -474 -756 -302
-1170 121 -291 422 -532 737 -592 116 -22 305 -15 416 15 100 27 262 109 354
178 318 239 458 643 358 1038 -85 336 -343 602 -680 701 -77 23 -113 27 -250
30 -88 1 -180 -1 -205 -5z"/>
<path d="M859 1527 c-159 -97 -249 -168 -375 -299 -157 -162 -264 -321 -348
-519 -42 -100 -87 -242 -101 -319 -3 -19 -13 -65 -21 -101 -15 -64 -15 -68 6
-109 39 -76 -98 -70 1720 -70 1817 0 1681 -6 1720 70 24 47 26 30 -29 263
-103 434 -393 831 -782 1067 -90 55 -100 58 -120 34 -23 -28 -131 -107 -213
-156 -85 -52 -237 -106 -375 -134 -126 -25 -349 -16 -490 21 -182 47 -344 131
-473 244 -25 23 -50 41 -55 41 -5 0 -34 -15 -64 -33z"/>
</g>
</svg>

